<svg xmlns="http://www.w3.org/2000/svg" width="131" height="131" viewBox="0 0 131 131" version="1.1">
  <title>
    add-icon
  </title>
  <desc>
    Created with Sketch.
  </desc>
  <g id="Page-1" stroke="none" stroke-width="1" fill="none" fill-rule="evenodd">
    <g id="Events-page" transform="translate(-1014.000000, -97.000000)">
      <g id="add-icon" transform="translate(1017.000000, 100.000000)">
        <path d="M95 67.14L67.14 67.14 67.14 95 57.86 95 57.86 67.14 30 67.14 30 57.86 57.86 57.86 57.86 30 67.14 30 67.14 57.86 95 57.86 95 67.14 95 67.14Z" id="Shape" fill="#000000"/>
        <path d="M62.5 125C97.02 125 125 97.02 125 62.5 125 27.98 97.02 0 62.5 0 27.98 0 0 27.98 0 62.5 0 97.02 27.98 125 62.5 125Z" id="Oval-2" stroke="#979797" stroke-width="5"/>
      </g>
    </g>
  </g>
</svg>
