<svg xmlns="http://www.w3.org/2000/svg" width="82" height="72" viewBox="0 0 82 72" version="1.1">
  <title>
    camera-icon-stroke
  </title>
  <desc>
    Created with Sketch.
  </desc>
  <g id="Page-1" stroke="none" stroke-width="1" fill="none" fill-rule="evenodd">
    <g id="Events-page" transform="translate(-54.000000, -1114.000000)" stroke="#979797" stroke-width="2">
      <g id="event-golf-lads" transform="translate(21.000000, 940.000000)">
        <g id="camera-icon-stroke" transform="translate(34.000000, 175.000000)">
          <ellipse id="Oval" cx="40.23" cy="39.11" rx="12.8" ry="12.44"/>
          <path d="M28 0L20.8 7.78 8 7.78C3.6 7.78 0 11.28 0 15.56L0 62.22C0 66.5 3.6 70 8 70L72 70C76.4 70 80 66.5 80 62.22L80 15.56C80 11.28 76.4 7.78 72 7.78L59.2 7.78 52 0 28 0 28 0ZM40 58.33C28.8 58.33 20 49.78 20 38.89 20 28 28.8 19.44 40 19.44 51.2 19.44 60 28 60 38.89 60 49.78 51.2 58.33 40 58.33L40 58.33Z" id="Shape"/>
        </g>
      </g>
    </g>
  </g>
</svg>
