<svg xmlns="http://www.w3.org/2000/svg" width="96" height="98" viewBox="0 0 96 98" version="1.1">
  <title>
    comment-icon-stroke
  </title>
  <desc>
    Created with Sketch.
  </desc>
  <g id="Page-1" stroke="none" stroke-width="1" fill="none" fill-rule="evenodd">
    <g id="Join-event" transform="translate(-279.000000, -1761.000000)" stroke="#979797" stroke-width="2">
      <g id="status-update-1" transform="translate(21.000000, 1407.000000)">
        <g id="comment-icon-stroke" transform="translate(259.000000, 355.000000)">
          <path d="M94 9.4C94 4.23 89.77 0 84.6 0L9.4 0C4.23 0 0 4.23 0 9.4L0 65.8C0 70.97 4.23 75.2 9.4 75.2L75.2 75.2 94 94 94 9.4 94 9.4ZM75.2 56.4L18.8 56.4 18.8 47 75.2 47 75.2 56.4 75.2 56.4ZM75.2 42.3L18.8 42.3 18.8 32.9 75.2 32.9 75.2 42.3 75.2 42.3ZM75.2 28.2L18.8 28.2 18.8 18.8 75.2 18.8 75.2 28.2 75.2 28.2Z" id="Shape"/>
        </g>
      </g>
    </g>
  </g>
</svg>
