<svg xmlns="http://www.w3.org/2000/svg" width="133" height="125" viewBox="0 0 133 125" version="1.1">
  <title>
    events-icon
  </title>
  <desc>
    Created with Sketch.
  </desc>
  <g id="Page-1" stroke="none" stroke-width="1" fill="none" fill-rule="evenodd">
    <g id="Events-page" transform="translate(-140.000000, -1953.000000)" fill="#000000">
      <g id="events-icon" transform="translate(140.000000, 1953.000000)">
        <path d="M66.5 52.63C81.13 52.63 93.1 40.79 93.1 26.32 93.1 11.84 81.13 0 66.5 0 51.87 0 39.9 11.84 39.9 26.32 39.9 40.79 51.87 52.63 66.5 52.63L66.5 52.63ZM66.5 13.16C73.82 13.16 79.8 19.08 79.8 26.32 79.8 33.55 73.82 39.47 66.5 39.47 59.19 39.47 53.2 33.55 53.2 26.32 53.2 19.08 59.19 13.16 66.5 13.16L66.5 13.16ZM26.6 72.37C11.97 72.37 0 84.21 0 98.68 0 113.16 11.97 125 26.6 125 41.23 125 53.2 113.16 53.2 98.68 53.2 84.21 41.23 72.37 26.6 72.37L26.6 72.37ZM26.6 111.84C19.29 111.84 13.3 105.92 13.3 98.68 13.3 91.45 19.29 85.53 26.6 85.53 33.92 85.53 39.9 91.45 39.9 98.68 39.9 105.92 33.92 111.84 26.6 111.84L26.6 111.84ZM66.5 59.87C59.85 59.87 53.87 65.79 53.87 72.37 53.87 78.95 59.85 84.87 66.5 84.87 73.15 84.87 79.14 78.95 79.14 72.37 79.14 65.79 73.15 59.87 66.5 59.87L66.5 59.87ZM106.4 72.37C91.77 72.37 79.8 84.21 79.8 98.68 79.8 113.16 91.77 125 106.4 125 121.03 125 133 113.16 133 98.68 133 84.21 121.03 72.37 106.4 72.37L106.4 72.37ZM106.4 111.84C99.09 111.84 93.1 105.92 93.1 98.68 93.1 91.45 99.09 85.53 106.4 85.53 113.72 85.53 119.7 91.45 119.7 98.68 119.7 105.92 113.72 111.84 106.4 111.84L106.4 111.84Z" id="Shape"/>
      </g>
    </g>
  </g>
</svg>
