<svg xmlns="http://www.w3.org/2000/svg" width="98" height="63" viewBox="0 0 98 63" version="1.1">
  <title>
    group-icon-stroke
  </title>
  <desc>
    Created with Sketch.
  </desc>
  <g id="Page-1" stroke="none" stroke-width="1" fill="none" fill-rule="evenodd">
    <g id="Events-page" transform="translate(-473.000000, -1123.000000)" stroke="#979797" stroke-width="2">
      <g id="event-golf-lads" transform="translate(21.000000, 940.000000)">
        <g id="group-icon-stroke" transform="translate(453.000000, 184.000000)">
          <path d="M65.45 26.14C72.87 26.14 78.55 20.48 78.55 13.07 78.55 5.66 72.87 0 65.45 0 58.04 0 52.36 5.66 52.36 13.07 52.36 20.48 58.04 26.14 65.45 26.14L65.45 26.14ZM30.55 26.14C37.96 26.14 43.64 20.48 43.64 13.07 43.64 5.66 37.96 0 30.55 0 23.13 0 17.45 5.66 17.45 13.07 17.45 20.48 23.13 26.14 30.55 26.14L30.55 26.14ZM30.55 34.86C20.51 34.86 0 40.09 0 50.11L0 61 61.09 61 61.09 50.11C61.09 40.09 40.58 34.86 30.55 34.86L30.55 34.86ZM65.45 34.86C64.15 34.86 62.84 34.86 61.09 35.29 66.33 38.78 69.82 44.01 69.82 50.11L69.82 61 96 61 96 50.11C96 40.09 75.49 34.86 65.45 34.86L65.45 34.86Z" id="Shape"/>
        </g>
      </g>
    </g>
  </g>
</svg>
