<svg xmlns="http://www.w3.org/2000/svg" width="194" height="106" viewBox="0 0 194 106" version="1.1">
  <title>
    invite-nocircle-icon-stroke
  </title>
  <desc>
    Created with Sketch.
  </desc>
  <g id="Page-1" stroke="none" stroke-width="1" fill="none" fill-rule="evenodd">
    <g id="Events-create-page" transform="translate(-107.000000, -1099.000000)" stroke="#979797" stroke-width="2">
      <g id="details" transform="translate(75.000000, 853.000000)">
        <path d="M97 287L73 287 73 263 57 263 57 287 33 287 33 303 57 303 57 327 73 327 73 303 97 303 97 287 97 287ZM177 295C190.6 295 201 284.6 201 271 201 257.4 190.6 247 177 247 174.6 247 172.2 247.8 169.8 247.8 174.6 255 177 262.2 177 271 177 279.8 174.6 287 169.8 294.2 172.2 294.2 174.6 295 177 295L177 295ZM137 295C150.6 295 161 284.6 161 271 161 257.4 150.6 247 137 247 123.4 247 113 257.4 113 271 113 284.6 123.4 295 137 295L137 295ZM189.8 312.6C196.2 318.2 201 326.2 201 335L201 351 225 351 225 335C225 323 205.8 315 189.8 312.6L189.8 312.6ZM137 311C121 311 89 319 89 335L89 351 185 351 185 335C185 319 153 311 137 311L137 311Z" id="invite-nocircle-icon-stroke"/>
      </g>
    </g>
  </g>
</svg>
