<svg xmlns="http://www.w3.org/2000/svg" width="127" height="127" viewBox="0 0 127 127" version="1.1">
  <title>
    invite-icon-stroke
  </title>
  <g id="Page-1" stroke="none" stroke-width="1" fill="none" fill-rule="evenodd">
    <g id="Join-event" transform="translate(-693.000000, -274.000000)" stroke="#979797" stroke-width="2">
      <g id="invite-icon-stroke" transform="translate(694.000000, 275.000000)">
        <path d="M47 57L35 57 35 45 27 45 27 57 15 57 15 65 27 65 27 77 35 77 35 65 47 65 47 57 47 57ZM87 61C93.8 61 99 55.8 99 49 99 42.2 93.8 37 87 37 85.8 37 84.6 37.4 83.4 37.4 85.8 41 87 44.6 87 49 87 53.4 85.8 57 83.4 60.6 84.6 60.6 85.8 61 87 61L87 61ZM67 61C73.8 61 79 55.8 79 49 79 42.2 73.8 37 67 37 60.2 37 55 42.2 55 49 55 55.8 60.2 61 67 61L67 61ZM93.4 69.8C96.6 72.6 99 76.6 99 81L99 89 111 89 111 81C111 75 101.4 71 93.4 69.8L93.4 69.8ZM67 69C59 69 43 73 43 81L43 89 91 89 91 81C91 73 75 69 67 69L67 69Z" id="Shape"/>
        <path d="M62.5 125C97.02 125 125 97.02 125 62.5 125 27.98 97.02 0 62.5 0 27.98 0 0 27.98 0 62.5 0 97.02 27.98 125 62.5 125Z" id="Oval-7"/>
      </g>
    </g>
  </g>
</svg>
