<svg xmlns="http://www.w3.org/2000/svg" width="131" height="131" viewBox="0 0 131 131" version="1.1">
  <title>
    search-icon
  </title>
  <desc>
    Created with Sketch.
  </desc>
  <g id="Page-1" stroke="none" stroke-width="1" fill="none" fill-rule="evenodd">
    <g id="Events-page" transform="translate(-97.000000, -97.000000)">
      <g id="search-icon" transform="translate(100.000000, 100.000000)">
        <path d="M62.5 125C97.02 125 125 97.02 125 62.5 125 27.98 97.02 0 62.5 0 27.98 0 0 27.98 0 62.5 0 97.02 27.98 125 62.5 125Z" id="Oval-2" stroke="#979797" stroke-width="5"/>
        <g id="search" transform="translate(30.000000, 30.000000)" fill="#000000">
          <path d="M45.14 39.72L42.25 39.72 41.17 38.64C44.78 34.67 46.94 29.25 46.94 23.47 46.94 10.47 36.47 0 23.47 0 10.47 0 0 10.47 0 23.47 0 36.47 10.47 46.94 23.47 46.94 29.25 46.94 34.67 44.78 38.64 41.17L39.72 42.25 39.72 45.14 57.78 63.19 63.19 57.78 45.14 39.72 45.14 39.72ZM23.47 39.72C14.44 39.72 7.22 32.5 7.22 23.47 7.22 14.44 14.44 7.22 23.47 7.22 32.5 7.22 39.72 14.44 39.72 23.47 39.72 32.5 32.5 39.72 23.47 39.72L23.47 39.72Z" id="Shape"/>
        </g>
      </g>
    </g>
  </g>
</svg>
