<svg xmlns="http://www.w3.org/2000/svg" width="127" height="127" viewBox="0 0 127 127" version="1.1">
  <title>
    settings-icon-stroke
  </title>
  <desc>
    Created with Sketch.
  </desc>
  <g id="Page-1" stroke="none" stroke-width="1" fill="none" fill-rule="evenodd">
    <g id="Join-event" transform="translate(-149.000000, -274.000000)" stroke="#979797" stroke-width="2">
      <g id="settings-icon-stroke" transform="translate(150.000000, 275.000000)">
        <path d="M21 90L104 90 104 80.83 21 80.83 21 90 21 90ZM21 67.08L104 67.08 104 57.92 21 57.92 21 67.08 21 67.08ZM21 35L21 44.17 104 44.17 104 35 21 35 21 35Z" id="Shape"/>
        <path d="M62.5 125C97.02 125 125 97.02 125 62.5 125 27.98 97.02 0 62.5 0 27.98 0 0 27.98 0 62.5 0 97.02 27.98 125 62.5 125Z" id="Oval-5"/>
      </g>
    </g>
  </g>
</svg>
