<svg xmlns="http://www.w3.org/2000/svg" width="127" height="127" viewBox="0 0 127 127" version="1.1">
  <title>
    view-icon-stroke
  </title>
  <desc>
    Created with Sketch.
  </desc>
  <g id="Page-1" stroke="none" stroke-width="1" fill="none" fill-rule="evenodd">
    <g id="Join-event" transform="translate(-421.000000, -274.000000)" stroke="#979797" stroke-width="2">
      <g id="view-icon-stroke" transform="translate(422.000000, 275.000000)">
        <path d="M28 45.5L45.5 45.5 45.5 28 28 28 28 45.5 28 45.5ZM54.25 98L71.75 98 71.75 80.5 54.25 80.5 54.25 98 54.25 98ZM28 98L45.5 98 45.5 80.5 28 80.5 28 98 28 98ZM28 71.75L45.5 71.75 45.5 54.25 28 54.25 28 71.75 28 71.75ZM54.25 71.75L71.75 71.75 71.75 54.25 54.25 54.25 54.25 71.75 54.25 71.75ZM80.5 28L80.5 45.5 98 45.5 98 28 80.5 28 80.5 28ZM54.25 45.5L71.75 45.5 71.75 28 54.25 28 54.25 45.5 54.25 45.5ZM80.5 71.75L98 71.75 98 54.25 80.5 54.25 80.5 71.75 80.5 71.75ZM80.5 98L98 98 98 80.5 80.5 80.5 80.5 98 80.5 98Z" id="Shape"/>
        <path d="M62.5 125C97.02 125 125 97.02 125 62.5 125 27.98 97.02 0 62.5 0 27.98 0 0 27.98 0 62.5 0 97.02 27.98 125 62.5 125Z" id="Oval-6"/>
      </g>
    </g>
  </g>
</svg>
