<svg xmlns="http://www.w3.org/2000/svg" width="127" height="127" viewBox="0 0 127 127" version="1.1">
  <title>
    whatshot-icon-stroke
  </title>
  <desc>
    Created with Sketch.
  </desc>
  <g id="Page-1" stroke="none" stroke-width="1" fill="none" fill-rule="evenodd">
    <g id="Join-event" transform="translate(-966.000000, -274.000000)" stroke="#979797" stroke-width="2">
      <g id="whatshot-icon-stroke" transform="translate(967.000000, 275.000000)">
        <path d="M69.8 18C69.8 18 72.52 29.25 72.52 38.25 72.52 46.8 66.63 54 58.01 54 49.4 54 42.6 46.8 42.6 38.25L42.6 36.9C33.99 47.25 29 60.3 29 74.25 29 92.7 44.41 108 63 108 81.59 108 97 92.7 97 74.25 97 51.3 86.57 31.05 69.8 18L69.8 18ZM63 94.5C55.29 94.5 49.4 88.65 49.4 81.45 49.4 74.7 53.93 69.75 61.19 68.4 68.89 67.05 76.6 63.45 80.68 57.6 82.49 63 83.4 68.85 83.4 74.7 83.4 85.5 74.33 94.5 63 94.5L63 94.5Z" id="Shape"/>
        <path d="M62.5 125C97.02 125 125 97.02 125 62.5 125 27.98 97.02 0 62.5 0 27.98 0 0 27.98 0 62.5 0 97.02 27.98 125 62.5 125Z" id="Oval-8"/>
      </g>
    </g>
  </g>
</svg>
